<?xml version="1.0" encoding="iso-8859-1"?>
<!-- Generator: Adobe Illustrator 19.0.0, SVG Export Plug-In . SVG Version: 6.00 Build 0)  -->
<svg version="1.1" id="Capa_1" xmlns="http://www.w3.org/2000/svg" xmlns:xlink="http://www.w3.org/1999/xlink" x="0px" y="0px"
	 viewBox="0 0 60 60" style="enable-background:new 0 0 60 60;" xml:space="preserve">
<g>
	<g>
		<path d="M59,40c0.6,0,1-0.4,1-1V15c0-0.6-0.4-1-1-1H1c-0.6,0-1,0.4-1,1v24c0,0.6,0.4,1,1,1h2v4H0v2h4h4h44h4h4v-2h-3v-4H59z M2,16
			h56v22h-2h-4H8H4H2V16z M51,40v4H9v-4H51z M5,44v-4h2v4H5z M55,44h-2v-4h2V44z"/>
		<path d="M13,36h42c0.6,0,1-0.4,1-1V19c0-0.6-0.4-1-1-1H13c-0.6,0-1,0.4-1,1v16C12,35.6,12.4,36,13,36z M14,20h40v14H14V20z"/>
		<rect x="4" y="24" width="2" height="2"/>
		<rect x="8" y="24" width="2" height="2"/>
		<rect x="4" y="28" width="2" height="2"/>
		<rect x="8" y="28" width="2" height="2"/>
		<rect x="4" y="32" width="2" height="2"/>
		<rect x="8" y="32" width="2" height="2"/>
		<rect x="4" y="20" width="6" height="2"/>
		<path d="M23,22h-4c-0.6,0-1,0.4-1,1v8c0,0.6,0.4,1,1,1h4c0.6,0,1-0.4,1-1v-8C24,22.4,23.6,22,23,22z M22,30h-2v-6h2V30z"/>
		<path d="M41,22h-4c-0.6,0-1,0.4-1,1v8c0,0.6,0.4,1,1,1h4c0.6,0,1-0.4,1-1v-8C42,22.4,41.6,22,41,22z M40,30h-2v-6h2V30z"/>
		<path d="M49,22h-4c-0.6,0-1,0.4-1,1v8c0,0.6,0.4,1,1,1h4c0.6,0,1-0.4,1-1v-8C50,22.4,49.6,22,49,22z M48,30h-2v-6h2V30z"/>
		<path d="M29,22h-3v2h2v8h2v-9C30,22.4,29.6,22,29,22z"/>
		<rect x="32" y="23" width="2" height="2"/>
		<rect x="32" y="29" width="2" height="2"/>
	</g>
</g>
<g>
</g>
<g>
</g>
<g>
</g>
<g>
</g>
<g>
</g>
<g>
</g>
<g>
</g>
<g>
</g>
<g>
</g>
<g>
</g>
<g>
</g>
<g>
</g>
<g>
</g>
<g>
</g>
<g>
</g>
</svg>
